<?xml version="1.0" ?><!DOCTYPE svg  PUBLIC '-//W3C//DTD SVG 1.1//EN'  'http://www.w3.org/Graphics/SVG/1.1/DTD/svg11.dtd'><svg enable-background="new 0 0 512 512" id="Layer_1" version="1.1" viewBox="0 0 512 512" xml:space="preserve" xmlns="http://www.w3.org/2000/svg" xmlns:xlink="http://www.w3.org/1999/xlink"><g><path d="M438.2,512H75.6c-6.3,0-11.3-5.1-11.3-11.3v-13.3c0-6.3,5.1-11.3,11.3-11.3h362.6c6.3,0,11.3,5.1,11.3,11.3   v13.3C449.5,506.9,444.4,512,438.2,512z" fill="#303A3F"/><path d="M426.2,101.5V48.2c0-5.3-4.3-9.5-9.5-9.5H354c-5.3,0-9.5,4.3-9.5,9.5v9.2c0,3.6,2.1,7,5.3,8.5   c22.8,11,43.1,24.4,59.9,42.1C415.7,114.3,426.2,110.2,426.2,101.5z" fill="#303A3F"/><path d="M428.8,27.2h-85.3c-4.8,0-8.8-3.9-8.8-8.8V8.6c0-4.8,3.9-8.8,8.8-8.8h85.3c4.8,0,8.8,3.9,8.8,8.8v9.8   C437.6,23.3,433.7,27.2,428.8,27.2z" fill="#303A3F"/><path d="M62.5,274.2c8.5,0,15.7-6.5,16.6-14.9c9.5-89.9,85.4-160,177.9-160c92.4,0,168.4,70.1,177.9,160   c0.9,8.5,8,14.9,16.6,14.9h0c9.9,0,17.8-8.6,16.7-18.5C456.7,149,366.6,65.8,256.9,65.8S57,149,45.7,255.7   C44.7,265.6,52.5,274.2,62.5,274.2L62.5,274.2z" fill="#303A3F"/><path d="M256,115.4C165.4,116,92.9,191.2,92.9,281.8v150.5c0,8.6,7,15.6,15.6,15.6H176c8.6,0,15.6-7,15.6-15.6V396   c0-35.8,28.1-66.1,63.8-67c37-1,67.3,28.8,67.3,65.5v37.8c0,8.6,7,15.6,15.6,15.6h67.4c8.6,0,15.6-7,15.6-15.6V279.7   C421.4,188.6,347.3,114.8,256,115.4z M257.1,256.4c-18.1,0-32.8-14.7-32.8-32.8c0-18.1,14.7-32.8,32.8-32.8   c18.1,0,32.8,14.7,32.8,32.8C289.9,241.8,275.2,256.4,257.1,256.4z" fill="#303A3F"/></g></svg>